# xmcd CD database file
# Copyright (C) 1995-1998 Ti Kan
#
# Track frame offsets:
#	150
#	12757
#	26397
#	39162
#	55710
#	66295
#	81035
#	98902
#	115477
#	128972
#	142132
#	150852
#
# Disc length: 2305 seconds
#
# Revision: 1
# Processed by: cddbd v1.4b41PL1 Copyright (c) Steve Scherf et al.
# Submitted via: CDex 1.30
#
DISCID=9108ff0c
DTITLE=Elliott Pacetti - This Evening
DYEAR=1996
DGENRE=Country
TTITLE0=Sweet Home Woman
TTITLE1=Just You And Me
TTITLE2=This Evening
TTITLE3=Anyone's Darlin' But Mine
TTITLE4=Nothing Good Comes Out Of New Orleans
TTITLE5=Cloudy Mind
TTITLE6=Wake Up Sleeping Beauty
TTITLE7=Old Soldiers
TTITLE8=Chapel In The Pines
TTITLE9=Shooting For The Stars
TTITLE10=Swamp-billy Swing
TTITLE11=Ninety Miles To Freedom
EXTD=\nYEAR: 1996  ID3G:   2
EXTT0=
EXTT1=
EXTT2=
EXTT3=
EXTT4=
EXTT5=
EXTT6=
EXTT7=
EXTT8=
EXTT9=
EXTT10=
EXTT11=
PLAYORDER=
